<?xml version="1.0" encoding="utf-8"?>
<!-- Generator: Adobe Illustrator 27.7.0, SVG Export Plug-In . SVG Version: 6.00 Build 0)  -->
<svg version="1.1" id="Layer_1" xmlns="http://www.w3.org/2000/svg" xmlns:xlink="http://www.w3.org/1999/xlink" x="0px" y="0px"
	 viewBox="0 0 1366 768" style="enable-background:new 0 0 1366 768;" xml:space="preserve">
<style type="text/css">
	.st0{clip-path:url(#SVGID_00000052804016221689678210000017069406320776157117_);}
	.st1{fill:#00728A;}
	.st2{font-family:'LucidaBright';}
	.st3{font-size:54.7499px;}
</style>
<g>
	<defs>
		<rect id="SVGID_1_" x="-39" y="8" width="1366" height="768"/>
	</defs>
	<clipPath id="SVGID_00000074431328849384289680000000237860404588530337_">
		<use xlink:href="#SVGID_1_"  style="overflow:visible;"/>
	</clipPath>
	<path style="clip-path:url(#SVGID_00000074431328849384289680000000237860404588530337_);" d="M339.02,446.06
		c9.24,4.03,13.88,5.96,23.2,9.67c0.73-5.7,1.14-8.51,2.09-14.05c5.07,1.04,7.61,1.56,12.68,2.61c-3.32,19.62-4.53,39.3-4.83,59.17
		h-12.9c0-6.09,0.06-9.1,0.28-15.03c-27.03-10.53-53.05-22.64-78.59-36.38c-0.86,8.01-1.2,12.07-1.72,20.31
		c-5.15-0.41-7.72-0.62-12.86-1.04c2.72-35.72,8.73-70.21,19.04-104.54c4.9,1.77,7.35,2.65,12.25,4.41
		c-2.21,6.97-3.24,10.52-5.15,17.73c28.38-1.18,56.43-0.51,84.71,2.05c1.68-4.84,2.57-7.22,4.43-11.91
		c4.78,2.1,7.17,3.15,11.95,5.25c-6.31,16.92-11.2,33.81-15.05,51.47c-5.05-1.19-7.57-1.79-12.61-2.98
		c1.08-5.44,1.67-8.12,2.95-13.4c-9.88-0.63-14.83-0.87-24.76-1.15C342.03,427.39,340.32,436.75,339.02,446.06 M326.61,441.6
		c1.5-10.06,2.41-14.98,4.51-24.59c-16.24-0.66-32.5-0.72-48.75-0.36c-0.33,1.75-0.49,2.63-0.81,4.39
		C296.37,428.34,311.42,435.15,326.61,441.6"/>
	<path style="clip-path:url(#SVGID_00000074431328849384289680000000237860404588530337_);" d="M397.34,375.35
		c-4.51-2.16-6.76-3.24-11.27-5.4c1.91-4.36,2.9-6.51,4.97-10.73c-24.57-12.95-49.15-25.89-73.73-38.84
		c-2.62,5.36-3.88,8.09-6.31,13.63c-4.51-2.16-6.76-3.24-11.27-5.4c6.36-14.4,13.5-28.5,21.68-41.96
		c10.68,6.74,21.36,13.49,32.04,20.23c0.16-0.26,0.24-0.39,0.39-0.65c-0.3-8.22,2.45-16.51,7.83-24.24
		c5.43-7.8,14.06-15.6,23.86-15.44c10.69,0.18,21.36,7.83,28.72,15.01c6.77,6.6,13.96,14.17,16.07,24.11
		c1.67,7.88-0.19,15.31-5.63,22.96c-4.51,6.35-10.23,10.1-17.62,11.37c-0.13,0.21-0.2,0.32-0.33,0.54c2.58,1.63,3.88,2.45,6.46,4.08
		C407.42,354.76,402.27,364.75,397.34,375.35 M371.07,318c6.73,4.25,10.09,6.37,16.81,10.62c5.28,3.33,9.68,4.95,13.19,4.94
		c3.5-0.01,6.56-2.12,9.34-6.28c2.5-3.73,3.1-7.2,1.74-10.59c-1.35-3.39-4.45-6.96-9.36-10.66c-4.1-3.09-6.15-4.64-10.26-7.73
		c-6.68-5.04-12.02-7.72-16.02-7.96s-7.57,1.81-10.5,6.19C360.31,305.04,362.17,312.38,371.07,318"/>
	<path style="clip-path:url(#SVGID_00000074431328849384289680000000237860404588530337_);" d="M448.84,298.16
		c-3.64-3.46-5.46-5.19-9.1-8.65c3.06-3.18,4.62-4.74,7.79-7.78c-19.51-19.9-39.01-39.8-58.51-59.71c-4.03,3.86-6.01,5.83-9.89,9.87
		c-3.64-3.46-5.46-5.19-9.1-8.65c10.49-10.53,21.27-20.43,32.66-29.99c8.15,9.65,16.31,19.3,24.46,28.95
		c0.22-0.18,0.34-0.27,0.56-0.45c2.11-7.51,7.12-14.09,14.51-19.38c7.63-5.46,18.09-9.66,27.18-6.43
		c10.09,3.58,17.4,14.31,22.86,22.99c4.48,7.12,8.98,18.45,8.16,27.37c-0.73,7.81-4.69,14.02-12.09,19.22
		c-6.13,4.31-12.65,5.79-20.02,4.46c-0.19,0.15-0.28,0.23-0.46,0.38c1.97,2.33,2.96,3.5,4.93,5.83
		C464.41,283.27,456.62,290.42,448.84,298.16 M440.59,238.11c5.13,6.08,7.7,9.11,12.83,15.19c4.03,4.77,7.73,7.7,11.05,8.86
		c3.32,1.16,6.83,0.27,10.69-2.58c3.46-2.56,5.04-5.53,4.75-9.06c-0.29-3.53-2.18-7.8-5.76-12.79c-2.98-4.16-4.48-6.24-7.46-10.4
		c-4.86-6.78-9.13-10.97-12.87-12.49c-3.73-1.53-7.71-0.82-11.77,2.18C434.17,222.86,433.8,230.07,440.59,238.11"/>
	<path style="clip-path:url(#SVGID_00000074431328849384289680000000237860404588530337_);" d="M538.91,264.33
		c-2.22-4.21-3.32-6.31-5.54-10.52c6.58-3.19,9.92-4.68,16.69-7.44c-0.29-6.34-0.37-9.52-0.42-15.9
		c-17.2-16.02-35.74-30.1-55.17-43.28c-4.07,2.02-6.09,3.07-10.1,5.22c-2.39-4.12-3.58-6.18-5.97-10.3
		c15.01-7.99,30.53-15.14,46.5-20.99c1.79,4.39,2.69,6.58,4.48,10.97c-4.32,1.6-6.47,2.44-10.73,4.18
		c11.21,10.07,21.95,20.41,32.43,31.23c0.19-0.07,0.28-0.1,0.47-0.16c0.48-14.61,1.48-29.05,3-43.6c-4.62,1.35-6.92,2.07-11.5,3.57
		c-1.61-4.45-2.42-6.68-4.03-11.13c15.21-4.93,30.71-9.09,46.41-12.13c1.02,4.61,1.53,6.91,2.54,11.52
		c-3.98,0.79-5.97,1.21-9.93,2.1c-6.31,31.32-9.57,62.48-9.63,94.44C558.41,255.51,548.39,259.66,538.91,264.33"/>
	<path style="clip-path:url(#SVGID_00000074431328849384289680000000237860404588530337_);" d="M736.88,167.22
		c-2.62,12.25-5.25,24.49-7.87,36.74c3.38,0.65,5.07,0.99,8.43,1.73c-1.23,5.03-1.84,7.54-3.07,12.57
		c-15.26-3.03-30.34-5.2-45.84-6.62c0.42-5.14,0.63-7.71,1.04-12.86c5.57,0.4,8.35,0.66,13.9,1.29
		c3.41-26.81,6.83-53.61,10.24-80.42c-7.02-0.8-10.54-1.12-17.58-1.63c0.42-5.14,0.63-7.72,1.04-12.86
		c21.12,1.8,41.79,4.78,62.56,9.03c-1.23,5.03-1.84,7.54-3.07,12.57c-4.25-0.93-6.38-1.37-10.66-2.19l-6.43,30
		c9.72,1.82,19.46,4.08,28.99,6.72l8.92-29.43c-4.2-1.14-6.3-1.69-10.52-2.73c1.36-5,2.04-7.49,3.41-12.49
		c20.46,5.31,40.24,11.74,59.91,19.5c-2.14,4.74-3.21,7.12-5.34,11.86c-6.5-2.67-9.78-3.94-16.39-6.33
		c-10.04,25.27-20.08,50.53-30.12,75.8c5.23,1.89,7.82,2.89,12.96,5c-2.14,4.74-3.21,7.11-5.34,11.86
		c-14.47-5.61-28.89-10.3-43.89-14.29c1.36-4.99,2.05-7.49,3.41-12.49c3.34,0.82,5,1.25,8.32,2.15
		c3.64-12.01,7.28-24.02,10.93-36.03C755.64,171.16,746.25,168.98,736.88,167.22"/>
	<path style="clip-path:url(#SVGID_00000074431328849384289680000000237860404588530337_);" d="M851.26,243.63
		c5.83,6.07,8.63,9.2,13.96,15.62c-6.31,3.28-12.78,4.59-19.46,4.12c-6.69-0.48-12.91-2.57-18.98-6.31
		c-9.79-6.03-15.79-12.6-17.68-20.43c-2.41-10.01,1.35-20.99,5.82-29.88c4.75-9.45,12.11-19.32,22.54-22.58
		c10.87-3.4,23.07,0.91,32.47,6.72c8.47,5.24,16.16,12.96,19.16,22.72c2.65,8.64,0.35,17.02-6.21,24.99
		c-2.93,3.56-4.39,5.34-7.32,8.9c-12.35-9.84-25.63-18.53-39.33-26.35c-0.67,1.11-1.01,1.66-1.68,2.77
		c-3.51,5.78-5.32,10.53-5.5,14.22c-0.18,3.69,1.48,6.55,5.02,8.74C839.97,250.52,845.6,249.52,851.26,243.63 M841.8,211.94
		c8.3,4.69,12.36,7.18,20.3,12.47c1.53-2.16,2.29-3.24,3.82-5.4c5.42-7.67,4.62-13.94-2.64-18.4c-4.12-2.53-7.71-3-10.67-1.5
		c-2.96,1.5-5.99,4.87-9.14,10.06C842.8,210.28,842.47,210.83,841.8,211.94"/>
	<path style="clip-path:url(#SVGID_00000074431328849384289680000000237860404588530337_);" d="M927.56,338.79
		c-4.25,2.66-6.37,3.99-10.62,6.66c-5.85-9.33-11.84-18.08-18.43-26.91c2.04-1.61,3.06-2.42,5.09-4.03
		c-0.12-0.15-0.18-0.23-0.3-0.38c-7-0.98-13.1-4.57-18.77-10.75c-5.25-5.72-8.18-11.62-8.84-18.15c-0.65-6.53,1.18-12.37,5.87-17.46
		c5.21-5.66,11.46-8.07,18.84-6.77c7.38,1.3,14.65,5.6,21.28,12.98c5.41,6.03,8.42,12.53,9.03,19.09c4.1-3.24,6.14-4.86,10.24-8.1
		c3.92-3.1,5.68-6.05,5.21-8.83s-2.1-5.87-4.92-9.17c-5.83-6.82-11.65-8.18-17.05-4.44c-5.63-8.07-8.6-11.99-14.84-19.6
		c5.29-2.91,11.77-2.99,19.23-0.05c8.19,3.23,17.04,10.26,22.23,17.08c6.1,8.01,12.06,16.61,13.8,26.97
		c1.45,8.58-0.7,14.78-6.11,18.44c-12.15,8.2-24.3,16.39-36.45,24.59C924.31,333.43,925.41,335.2,927.56,338.79 M910.22,309.28
		c5.23-4.14,7.84-6.2,13.07-10.34c-0.43-4.38-2.15-8.38-5.13-11.88c-6.14-7.2-12.42-7.75-18.41-2.18
		c-5.81,5.41-5.66,11.2,0.03,17.88C902.49,305.94,905.94,308.08,910.22,309.28"/>
	<path style="clip-path:url(#SVGID_00000074431328849384289680000000237860404588530337_);" d="M936.64,355.26
		c24.4-13.3,48.8-26.6,73.19-39.91c-2.21-4.35-3.35-6.5-5.69-10.74c4.32-2.53,6.48-3.8,10.81-6.33
		c7.07,13.31,13.42,26.72,19.28,40.61c-29.12,12.97-58.24,25.94-87.35,38.91c1.24,3.07,1.84,4.63,3,7.77
		c-4.61,1.91-6.91,2.86-11.52,4.77c-4.73-12.8-10.41-25.25-17.01-37.2c4.32-2.53,6.48-3.8,10.81-6.33
		C934,350.14,934.9,351.83,936.64,355.26"/>
	<path style="clip-path:url(#SVGID_00000074431328849384289680000000237860404588530337_);" d="M920.02,415.76
		c4.49-1.54,6.73-2.31,11.22-3.86c2.41,8.04,3.49,12.17,5.36,20.64c6.37,1.18,9.55,1.85,15.92,3.36
		c18.13-16.45,34.64-33.83,50.28-52.67c-1.55-4.96-2.36-7.41-4.07-12.24c4.42-1.75,6.63-2.63,11.05-4.38
		c6.7,18.72,11.35,37.96,15.2,57.43c-4.62,1.02-6.92,1.53-11.54,2.54c-1-5.47-1.55-8.17-2.73-13.51
		c-11.37,10.62-23.18,20.81-35.55,30.25c0.04,0.24,0.06,0.36,0.1,0.6c14.56,4.35,28.65,9.31,42.74,14.99
		c-0.61-6.03-0.96-9.01-1.77-14.9c4.65-0.79,6.98-1.18,11.63-1.97c2.88,20.37,3.84,40.85,4.09,61.4h-11.76
		c0-5.42-0.04-8.11-0.19-13.43c-29.17-16.58-59.14-28.97-91.63-37.41C926.41,440.16,923.64,427.84,920.02,415.76"/>
	<path style="clip-path:url(#SVGID_00000074431328849384289680000000237860404588530337_);" d="M803.08,408.68
		c0-80.15-67.68-145.13-151.17-145.13s-151.17,64.98-151.17,145.13s67.68,145.13,151.17,145.13S803.08,488.84,803.08,408.68"/>
</g>
<text transform="matrix(1.2135 0 0 1 582.2998 424.2832)" class="st1 st2 st3">A H</text>
</svg>
