<?xml version="1.0" standalone="no"?>
<!DOCTYPE svg PUBLIC "-//W3C//DTD SVG 20010904//EN"
 "http://www.w3.org/TR/2001/REC-SVG-20010904/DTD/svg10.dtd">
<svg version="1.0" xmlns="http://www.w3.org/2000/svg"
 width="1366.000000pt" height="1366.000000pt" viewBox="0 0 1366.000000 1366.000000"
 preserveAspectRatio="xMidYMid meet">
<metadata>
Created by potrace 1.14, written by Peter Selinger 2001-2017
</metadata>
<g transform="translate(0.000000,1366.000000) scale(0.100000,-0.100000)"
fill="#000000" stroke="none">
<path d="M6969 9587 c0 -18 -2 -47 -4 -64 -3 -28 0 -33 18 -34 12 -1 36 -3 52
-4 71 -4 106 -16 101 -33 -3 -9 -7 -37 -10 -62 -3 -25 -7 -61 -10 -80 -3 -19
-8 -57 -11 -85 -3 -27 -8 -63 -10 -80 -3 -16 -7 -48 -9 -70 -3 -22 -14 -112
-25 -199 -11 -88 -18 -163 -15 -167 2 -4 0 -10 -6 -14 -6 -4 -8 -11 -4 -16 6
-10 -109 -5 -126 6 -13 8 -32 -117 -20 -129 3 -2 32 -7 65 -10 33 -3 71 -8 85
-10 14 -3 48 -7 75 -10 28 -3 57 -7 65 -10 8 -3 33 -7 55 -10 22 -3 55 -8 72
-12 34 -7 40 -1 48 43 2 10 4 18 5 18 1 0 4 15 6 33 4 26 2 32 -13 33 -23 1
-54 7 -58 11 -2 2 5 40 14 86 10 45 16 82 14 82 -2 0 1 9 7 20 6 11 13 37 15
58 2 20 8 48 13 62 5 14 7 30 5 37 -5 14 26 22 53 12 11 -4 36 -10 56 -13 19
-3 41 -8 49 -10 8 -3 25 -8 39 -10 78 -15 94 -22 84 -37 -3 -5 -14 -42 -25
-82 -11 -39 -22 -79 -26 -87 -6 -15 -10 -26 -16 -52 -2 -7 -12 -38 -21 -69
l-19 -56 -38 11 c-43 11 -46 10 -52 -24 -3 -14 -10 -38 -16 -53 -6 -16 -11
-30 -11 -32 0 -5 32 -16 60 -21 14 -3 105 -32 203 -65 98 -33 180 -59 181 -57
5 6 46 107 46 112 0 3 -27 15 -60 27 -33 12 -60 26 -60 31 0 5 25 71 56 146
30 75 57 142 58 147 4 12 23 62 35 90 26 59 53 130 56 147 3 11 8 25 13 32 5
6 17 34 27 61 10 28 22 55 25 60 4 6 10 23 14 39 8 32 4 32 109 -7 l68 -26 25
56 c13 31 21 59 17 63 -7 6 -124 51 -183 70 -14 4 -34 12 -45 16 -11 4 -22 8
-25 9 -3 1 -39 12 -80 25 -87 27 -73 23 -174 50 -55 15 -82 18 -89 11 -6 -6
-8 -11 -4 -11 3 0 3 -10 -2 -22 -25 -69 -24 -77 16 -88 70 -19 69 -14 23 -166
-23 -77 -44 -141 -45 -142 -2 -2 -39 5 -82 17 -95 24 -141 34 -171 35 -31 1
-35 23 -18 97 8 35 17 76 20 92 4 15 9 39 12 55 3 15 6 35 7 45 1 15 8 17 46
12 25 -3 48 -8 52 -10 4 -3 12 2 19 10 7 8 10 15 7 15 -3 0 1 23 8 50 7 28 12
50 10 50 -1 0 -38 7 -81 15 -44 8 -97 17 -119 20 -22 4 -51 8 -65 11 -14 3
-43 7 -65 9 -22 3 -56 8 -75 11 -19 3 -57 8 -85 10 -27 2 -69 6 -92 8 -42 4
-43 4 -44 -27z"/>
<path d="M5839 9225 c-2 -2 -22 -6 -44 -9 -46 -6 -215 -49 -260 -66 -16 -6
-32 -11 -35 -11 -11 2 -110 -30 -110 -35 0 -3 7 -18 15 -34 9 -17 15 -33 15
-37 0 -27 12 -42 28 -33 49 26 111 33 98 12 -7 -12 -25 -244 -29 -384 0 -16
-3 -28 -7 -28 -3 0 -31 26 -61 58 -31 31 -102 101 -159 154 -84 81 -99 99 -84
104 30 10 84 35 84 38 0 2 -6 19 -14 37 -7 19 -16 42 -19 51 -5 15 -10 15 -59
-4 -29 -11 -68 -25 -85 -31 -18 -6 -33 -13 -33 -17 0 -4 -6 -7 -12 -7 -11 0
-266 -119 -277 -129 -6 -5 40 -94 52 -101 5 -3 30 7 57 21 39 21 51 24 62 14
7 -7 43 -33 78 -57 36 -25 67 -48 68 -53 2 -4 10 -8 17 -8 7 0 15 -3 17 -7 2
-5 30 -28 63 -53 33 -25 66 -51 73 -58 8 -7 30 -25 50 -40 20 -15 43 -34 52
-42 9 -8 38 -35 66 -60 l49 -45 3 -82 c1 -48 -2 -83 -7 -83 -9 0 -141 -58
-150 -66 -3 -2 6 -27 19 -54 18 -38 28 -49 39 -44 9 3 21 7 26 8 6 2 35 14 65
28 54 25 151 63 180 70 11 4 15 25 16 99 1 91 11 268 19 339 14 136 22 200 30
245 3 17 7 48 10 70 3 22 7 51 10 65 9 45 18 95 18 109 0 15 55 41 86 41 20 0
21 5 5 82 -5 27 -17 42 -25 33z"/>
<path d="M8365 8822 c-50 -17 -89 -45 -129 -91 -12 -13 -27 -29 -33 -37 -7 -7
-13 -16 -13 -19 0 -4 -9 -18 -20 -32 -11 -14 -17 -29 -14 -34 3 -5 1 -9 -3 -9
-7 0 -22 -28 -39 -75 -2 -5 -10 -39 -18 -74 -28 -122 -1 -207 91 -291 56 -51
163 -108 213 -113 17 -2 32 -6 35 -9 12 -12 129 3 171 22 l46 20 -33 37 c-42
49 -105 113 -111 113 -3 0 -17 -10 -32 -23 -73 -63 -197 1 -182 94 8 47 56
149 71 149 17 0 198 -113 296 -185 49 -36 93 -65 97 -64 15 1 94 111 119 165
34 74 32 129 -5 208 -57 118 -179 214 -322 252 -71 18 -123 17 -185 -4z m255
-152 c35 -18 70 -59 71 -84 3 -49 -5 -68 -66 -154 -3 -4 -43 19 -108 61 -31
20 -61 37 -65 37 -4 0 -13 5 -20 12 -17 17 4 52 66 113 36 35 74 40 122 15z"/>
<path d="M3966 8687 c-27 -23 -98 -89 -158 -146 l-108 -104 40 -38 c23 -22 46
-39 51 -39 6 0 31 20 56 45 l45 45 69 -72 c38 -40 69 -76 69 -80 0 -5 4 -8 9
-8 5 0 49 -41 98 -91 48 -50 143 -147 211 -216 67 -69 122 -130 122 -135 0 -5
-6 -11 -13 -14 -8 -3 -23 -18 -35 -33 l-21 -28 43 -42 42 -42 60 55 c32 29 84
77 114 105 30 28 59 51 63 51 4 0 -4 16 -18 35 l-27 34 34 -2 c47 -2 128 12
128 24 0 5 8 9 18 9 10 0 24 9 32 20 8 11 19 20 25 20 12 0 65 73 65 89 0 6 4
11 8 11 10 0 12 13 13 100 1 49 -5 81 -25 130 -30 72 -86 170 -98 170 -4 0 -8
6 -8 14 0 24 -104 123 -153 145 -77 35 -140 30 -238 -20 -55 -27 -159 -117
-159 -137 0 -5 -7 -15 -15 -22 -8 -7 -15 -20 -15 -29 0 -9 -4 -23 -10 -31 -7
-12 -13 -9 -32 15 -12 16 -31 39 -43 52 -11 13 -33 39 -50 59 -16 19 -43 50
-58 67 -16 18 -36 42 -44 55 -21 30 -30 28 -87 -21z m583 -171 c22 -12 81 -71
122 -124 30 -38 119 -177 120 -186 0 -6 2 -20 4 -31 12 -59 -55 -130 -120
-128 -58 2 -86 25 -217 181 -114 136 -124 184 -56 252 50 51 96 62 147 36z"/>
<path d="M9166 8263 c-3 -3 -16 -7 -28 -8 -36 -4 -38 -4 -38 -14 0 -5 20 -34
45 -64 25 -31 45 -60 45 -66 0 -6 4 -11 8 -11 5 0 15 -12 22 -26 11 -19 19
-24 35 -19 63 21 130 -11 176 -84 47 -73 37 -106 -50 -171 -18 -14 -41 -33
-51 -43 -17 -18 -18 -17 -30 20 -55 180 -233 311 -380 279 -59 -12 -117 -65
-148 -134 -39 -88 -3 -210 88 -298 56 -54 79 -69 133 -84 41 -12 48 -25 17
-35 -29 -9 -25 -21 28 -94 26 -36 64 -92 85 -123 21 -31 42 -60 46 -63 12 -7
100 46 101 60 0 6 -11 27 -25 47 l-25 38 72 47 c40 27 75 50 78 53 14 14 190
130 197 130 12 0 67 69 75 93 10 35 9 101 -3 138 -19 59 -20 64 -21 69 -1 3
-12 22 -24 42 -13 21 -24 42 -24 48 0 5 -4 10 -8 10 -4 0 -16 15 -27 33 -25
43 -116 137 -132 137 -7 0 -13 4 -13 8 0 7 -77 56 -90 57 -3 0 -10 4 -16 8 -7
3 -29 9 -50 12 -22 3 -44 8 -51 10 -6 2 -14 1 -17 -2z m-45 -412 c16 -3 69
-61 88 -96 32 -61 28 -75 -42 -127 -80 -60 -95 -59 -165 15 -64 68 -59 141 14
190 32 23 52 26 105 18z"/>
<path d="M6457 8034 c-1 -1 -40 -4 -87 -8 -47 -3 -94 -8 -105 -10 -213 -47
-284 -70 -425 -138 -346 -167 -614 -456 -743 -803 -27 -73 -62 -205 -71 -265
-24 -170 -24 -290 -1 -450 7 -50 30 -145 51 -210 24 -72 102 -250 115 -260 3
-3 14 -21 24 -40 35 -67 119 -174 215 -271 68 -68 231 -202 238 -194 2 2 13
-5 24 -15 40 -37 308 -158 388 -175 8 -2 15 -4 15 -5 0 -2 27 -9 75 -19 25 -5
56 -12 70 -15 81 -19 373 -27 475 -13 181 26 332 71 488 147 71 34 170 91 202
117 6 4 28 21 50 38 82 61 196 171 256 245 91 114 135 191 229 395 15 32 61
197 66 235 2 19 8 60 13 90 14 82 10 298 -6 387 -8 43 -17 91 -19 106 -8 44
-64 210 -76 225 -6 6 -8 12 -5 12 16 0 -120 233 -180 308 -73 93 -179 198
-268 266 -33 25 -64 49 -70 53 -54 43 -288 163 -316 163 -8 0 -19 4 -25 8 -7
7 -39 18 -109 38 -33 10 -100 25 -131 30 -20 3 -46 7 -58 10 -60 11 -289 26
-299 18z"/>
<path d="M3788 7991 c-83 -29 -185 -136 -219 -230 -5 -14 -12 -33 -16 -41 -8
-20 -10 -29 -11 -72 -2 -41 -19 -50 -46 -23 -8 8 -17 15 -21 15 -3 0 -18 9
-33 19 -15 10 -71 47 -125 81 l-97 62 -20 -23 c-11 -13 -19 -29 -20 -36 0 -6
-3 -13 -7 -15 -5 -1 -16 -19 -26 -38 -87 -163 -150 -300 -143 -307 3 -3 28
-16 55 -29 l51 -23 25 53 c14 29 25 58 25 64 0 21 21 13 159 -60 75 -39 183
-96 241 -126 354 -184 348 -181 343 -203 -3 -11 -10 -19 -16 -19 -6 0 -7 -3
-4 -7 4 -3 2 -12 -4 -20 -6 -7 -8 -13 -4 -13 4 0 2 -7 -5 -15 -10 -12 -3 -19
46 -41 50 -23 58 -24 66 -10 5 8 9 18 9 21 0 5 62 124 111 214 24 43 27 56 17
62 -8 4 -23 14 -34 23 -19 14 -19 15 10 22 145 36 248 221 201 361 -21 63 -63
125 -133 196 -140 142 -268 196 -375 158z m52 -251 c57 -29 194 -132 242 -182
20 -22 40 -52 43 -68 8 -37 -24 -113 -57 -133 -26 -17 -83 -28 -93 -19 -4 4
-10 7 -13 8 -19 2 -68 27 -107 54 -24 17 -48 30 -54 30 -6 0 -11 5 -11 10 0 6
-7 10 -15 10 -8 0 -15 5 -15 10 0 6 -5 10 -11 10 -21 0 -87 55 -104 87 -46 84
33 216 123 208 15 -1 47 -12 72 -25z"/>
<path d="M10093 7655 l-51 -32 28 -51 c20 -37 25 -54 16 -60 -24 -19 -171 -96
-178 -94 -5 1 -8 -2 -8 -8 0 -6 -4 -10 -8 -10 -5 0 -65 -31 -133 -68 -297
-164 -390 -212 -400 -207 -4 3 -13 21 -19 40 -6 19 -14 35 -17 35 -3 0 -27
-12 -54 -27 -44 -25 -49 -31 -44 -53 4 -14 13 -32 20 -40 7 -8 14 -18 15 -22
0 -4 14 -36 29 -70 58 -125 81 -181 81 -195 0 -24 25 -24 77 0 l51 23 -14 33
c-12 28 -12 35 0 47 8 8 19 14 23 14 5 0 27 8 49 19 39 19 93 43 182 82 26 11
65 29 87 39 74 33 135 59 138 57 1 -1 13 6 27 16 13 9 32 17 41 17 9 0 22 7
29 15 7 8 18 15 26 15 7 0 41 13 76 29 35 16 89 41 121 55 31 14 57 27 57 29
0 15 -162 358 -182 385 -12 17 -16 16 -65 -13z"/>
<path d="M2844 6968 c-4 -18 -8 -35 -9 -38 0 -3 -6 -21 -13 -40 -6 -19 -14
-46 -16 -60 -3 -14 -5 -25 -6 -25 -3 0 -65 -291 -74 -345 -3 -19 -8 -46 -10
-60 -8 -42 -16 -97 -22 -152 -3 -29 -7 -64 -10 -78 -2 -14 -6 -56 -10 -95 -3
-38 -7 -80 -9 -92 -4 -23 -2 -24 93 -37 27 -4 36 8 39 54 1 19 4 55 7 80 2 25
4 50 5 56 1 7 98 -37 216 -96 118 -60 215 -107 215 -104 0 2 17 -5 38 -15 42
-22 229 -102 283 -121 l36 -13 -3 -73 c-2 -41 0 -74 4 -75 38 -6 114 -4 118 3
3 5 8 53 10 106 6 166 19 331 30 382 3 14 7 41 9 61 l4 36 -60 13 c-33 7 -62
11 -64 8 -3 -3 -8 -24 -11 -47 -3 -23 -7 -50 -8 -59 -2 -9 -7 -17 -13 -19 -5
-2 -57 17 -114 41 -99 43 -104 46 -102 73 2 15 3 35 4 43 1 8 5 33 10 55 4 22
11 54 14 70 3 17 8 37 10 45 2 8 4 20 4 26 1 8 32 11 104 8 127 -4 146 -9 142
-31 -2 -10 -4 -18 -5 -18 -1 0 -3 -7 -5 -16 -1 -9 -6 -30 -9 -46 -7 -30 -6
-30 54 -46 61 -15 61 -15 70 7 4 13 11 36 14 52 4 26 26 115 37 153 2 7 24 75
49 151 l45 137 -40 19 c-79 36 -74 37 -92 -4 -38 -88 -33 -83 -82 -77 -94 11
-264 17 -523 19 -191 1 -268 4 -268 12 0 6 10 44 23 83 17 50 20 74 13 80 -9
6 -102 41 -112 41 -1 0 -6 -15 -10 -32z m461 -470 c3 -3 1 -25 -4 -49 -5 -24
-13 -60 -16 -79 -4 -19 -8 -42 -10 -50 -2 -8 -4 -25 -4 -37 -1 -28 -7 -28 -68
-1 -26 12 -50 22 -53 23 -5 1 -23 9 -186 85 -56 26 -111 51 -123 55 -23 7 -30
50 -9 57 17 6 467 2 473 -4z"/>
<path d="M10038 6981 c-21 -10 -40 -20 -43 -23 -3 -2 4 -30 14 -61 l20 -57
-27 -32 c-37 -45 -82 -96 -114 -130 -16 -16 -28 -31 -28 -34 0 -3 -75 -79
-166 -170 -134 -132 -170 -163 -186 -158 -25 7 -30 9 -90 18 -48 8 -58 21 -72
92 -11 53 -29 115 -35 119 -11 6 -95 -25 -103 -37 -3 -6 -2 -23 4 -37 5 -14
13 -44 18 -66 5 -22 15 -70 23 -106 9 -36 18 -82 21 -103 8 -51 10 -54 59 -66
159 -42 419 -137 567 -208 41 -19 80 -37 86 -38 6 -1 28 -13 50 -26 21 -13 65
-36 97 -52 31 -16 60 -32 62 -37 3 -4 6 -36 6 -71 l1 -63 59 0 58 0 -4 150
c-4 152 -12 263 -21 276 -2 4 0 10 6 14 6 4 7 12 3 18 -4 6 -8 23 -9 37 -12
110 -17 122 -47 116 -86 -17 -87 -18 -82 -40 10 -48 15 -127 8 -124 -42 20
-78 34 -202 78 -79 28 -151 52 -160 54 -9 2 -26 7 -39 12 -22 9 -21 11 25 46
27 20 58 45 69 55 12 10 48 41 80 68 32 28 81 71 108 97 28 26 52 46 53 45 1
-1 4 -16 7 -32 2 -17 5 -30 6 -30 1 0 3 -11 6 -25 8 -49 9 -49 64 -35 29 8 54
15 55 17 2 2 0 21 -5 43 -5 22 -11 51 -14 65 -13 68 -26 121 -44 188 -11 39
-17 72 -15 72 3 0 1 6 -5 13 -5 6 -13 28 -18 47 -10 45 -9 40 -23 75 -7 17
-13 38 -14 48 -2 21 -21 21 -69 -2z"/>
</g>
</svg>
